<svg width="150" height="100" fill="none" xmlns="http://www.w3.org/2000/svg"><path d="M106.4 12H43.6a9.6 9.6 0 0 0-9.6 9.6v55.8a9.6 9.6 0 0 0 9.6 9.6h62.8a9.6 9.6 0 0 0 9.6-9.6V21.6a9.6 9.6 0 0 0-9.6-9.6Z" fill="#E3F3FF"/><mask id="a" style="mask-type:alpha" maskUnits="userSpaceOnUse" x="34" y="12" width="82" height="75"><path d="M106.4 12H43.6a9.6 9.6 0 0 0-9.6 9.6v55.8a9.6 9.6 0 0 0 9.6 9.6h62.8a9.6 9.6 0 0 0 9.6-9.6V21.6a9.6 9.6 0 0 0-9.6-9.6Z" fill="#E3F3FF"/></mask><g mask="url(#a)"><circle cx="98.746" cy="85.206" r="24.735" fill="#227BFE"/><circle cx="54.717" cy="79.764" r="37.103" fill="#4E95FF"/><path d="M95.167 37.889a6.722 6.722 0 1 0 0-13.445 6.722 6.722 0 0 0 0 13.445Z" fill="#FFC10A"/></g><circle cx="41" cy="74" r="15" fill="#FE6363"/><rect x="40" y="70" width="2" height="12" rx="1" fill="#fff"/><circle cx="41" cy="67" r="1" fill="#fff"/></svg>