<svg width="30" height="30" fill="none" xmlns="http://www.w3.org/2000/svg"><rect width="30" height="30" rx="6" fill="#247DFF"/><path fill-rule="evenodd" clip-rule="evenodd" d="M23.928 12V6h-6l2.293 2.293L17.514 11H6a1 1 0 0 0-1 1v12a1 1 0 0 0 1 1h12a1 1 0 0 0 1-1V12.342l2.635-2.635L23.928 12Z" fill="#fff"/><circle cx="16" cy="15" r="2" fill="#247DFF"/><path d="M6.862 23.5h10.777a.2.2 0 0 0 .17-.306l-2.176-3.48a.2.2 0 0 0-.31-.036l-2.16 2.159a.2.2 0 0 1-.301-.021l-2.688-3.585a.2.2 0 0 0-.33.013l-3.148 4.949a.2.2 0 0 0 .166.307Z" fill="#247DFF"/></svg>