<svg xmlns="http://www.w3.org/2000/svg" viewBox="0 0 56 56"><defs><style>.cls-1{fill:none;}.cls-2{fill:#fff;}</style></defs><title>资源 5@1x</title><g id="图层_2" data-name="图层 2"><g id="图层_1-2" data-name="图层 1"><rect class="cls-1" width="56" height="56"/><path class="cls-2" d="M15,40.34H21.1V23H15ZM35.34,22.43c-2.53,0-3.93.84-5.54,2.88V23H23.69V40.34H29.8V30.9c0-2,1-3.94,3.25-3.94s2.86,1.95,2.86,3.9v9.48H42V30.47C42,23.61,37.88,22.43,35.34,22.43ZM18.05,14.27a3.25,3.25,0,0,0-3.41,3.07,3.25,3.25,0,0,0,3.41,3.06,3.25,3.25,0,0,0,3.41-3.06A3.25,3.25,0,0,0,18.05,14.27Z"/></g></g></svg>