<svg xmlns="http://www.w3.org/2000/svg" width="16" height="16" viewBox="0 0 16 16">
  <defs>
    <style>
      .cls-1 {
        fill: #fff;
        fill-rule: evenodd;
      }
    </style>
  </defs>
  <path id="形状_685_拷贝" data-name="形状 685 拷贝" class="cls-1" d="M4073.44,568.161a2.083,2.083,0,1,1,2.19-2.081A2.141,2.141,0,0,1,4073.44,568.161Zm-4.68,1.652a1.9,1.9,0,1,1,2.01-1.9A1.959,1.959,0,0,1,4068.76,569.813Zm-1.99,4.3a1.678,1.678,0,1,1,1.77-1.676,1.724,1.724,0,0,1-1.77,1.676h0Zm1.99,4.259a1.423,1.423,0,1,1,1.5-1.42A1.461,1.461,0,0,1,4068.76,578.371Zm4.68,1.629a1.243,1.243,0,1,1,1.31-1.241,1.273,1.273,0,0,1-1.31,1.241h0Zm4.75-2.1a1,1,0,1,1,1.05-1A1.03,1.03,0,0,1,4078.19,577.9Zm1.94-4.636a0.824,0.824,0,1,1,.87-0.822A0.848,0.848,0,0,1,4080.13,573.266Zm-2.62-5.292a0.676,0.676,0,1,0,.68-0.638,0.657,0.657,0,0,0-.68.638h0Z" transform="translate(-4065 -564)"/>
</svg>
