<?xml version="1.0" encoding="UTF-8"?>
<svg width="100px" height="100px" viewBox="0 0 100 100" version="1.1" xmlns="http://www.w3.org/2000/svg" xmlns:xlink="http://www.w3.org/1999/xlink">
    <title>圆环</title>
    <defs>
        <linearGradient x1="10.1784327%" y1="26.8447837%" x2="88.2455477%" y2="71.201541%" id="linearGradient-1">
            <stop stop-color="#8598F2" offset="0%"></stop>
            <stop stop-color="#88B9F5" offset="100%"></stop>
        </linearGradient>
    </defs>
    <g id="页面-1" stroke="none" stroke-width="1" fill="none" fill-rule="evenodd">
        <g id="登陆进行中" transform="translate(-1169.000000, -168.000000)">
            <g id="圆环" transform="translate(1169.000000, 168.000000)">
                <rect id="矩形" x="0" y="0" width="100" height="100"></rect>
                <path d="M78.1368951,1.08283006 C78.643434,0.427307544 79.585471,0.306532513 80.2409935,0.813071482 C92.2976983,10.1295948 99.5,24.4729337 99.5,40.0044289 C99.5,67.342524 77.3380951,89.5044289 50,89.5044289 C22.6619049,89.5044289 0.5,67.342524 0.5,40.0044289 C0.5,39.1760018 1.17157288,38.5044289 2,38.5044289 C2.82842712,38.5044289 3.5,39.1760018 3.5,40.0044289 C3.5,65.6856698 24.3187591,86.5044289 50,86.5044289 C75.6812409,86.5044289 96.5,65.6856698 96.5,40.0044289 C96.5,25.4120686 89.7358347,11.9412757 78.4066536,3.18692852 C77.7511311,2.68038955 77.6303561,1.73835258 78.1368951,1.08283006 Z" id="路径" fill="url(#linearGradient-1)" fill-rule="nonzero" transform="translate(50.000000, 45.002178) rotate(-180.000000) translate(-50.000000, -45.002178) "></path>
            </g>
        </g>
    </g>
</svg>