<svg width="150" height="100" fill="none" xmlns="http://www.w3.org/2000/svg"><path opacity=".6" d="M116 14H52a8 8 0 0 0-8 8v52a8 8 0 0 0 8 8h64a8 8 0 0 0 8-8V22a8 8 0 0 0-8-8Z" fill="#ADD6F4"/><path d="M108 22H44a8 8 0 0 0-8 8v52a8 8 0 0 0 8 8h64a8 8 0 0 0 8-8V30a8 8 0 0 0-8-8Z" fill="#E3F3FF"/><mask id="a" style="mask-type:alpha" maskUnits="userSpaceOnUse" x="36" y="22" width="80" height="68"><path d="M108 22H44a8 8 0 0 0-8 8v52a8 8 0 0 0 8 8h64a8 8 0 0 0 8-8V30a8 8 0 0 0-8-8Z" fill="#058CFF"/></mask><g mask="url(#a)"><circle cx="92" cy="87" r="25" fill="#227BFE"/><circle cx="49.5" cy="83.5" r="37.5" fill="#4E95FF"/><path d="M100.5 44a6.5 6.5 0 1 0 0-13 6.5 6.5 0 0 0 0 13Z" fill="#FFC10A"/></g><rect x="16" y="63" width="60" height="27" rx="6" fill="#FF4949"/><path d="M23.879 80.865v-1.934l4.799-1.887-4.8-1.866v-1.921l6.878 2.974v1.64l-6.877 2.994Zm8.148-1.442 1.914-.198c.055.433.217.777.486 1.032.269.25.578.376.93.376.4 0 .74-.162 1.018-.486.278-.328.417-.82.417-1.476 0-.615-.139-1.076-.417-1.381-.273-.31-.631-.465-1.073-.465-.552 0-1.046.244-1.484.732l-1.558-.226.984-5.216h5.08v1.798H34.7l-.3 1.702a2.905 2.905 0 0 1 1.312-.321c.852 0 1.574.31 2.167.93.592.62.889 1.424.889 2.413 0 .825-.24 1.56-.718 2.208-.652.884-1.556 1.326-2.714 1.326-.925 0-1.68-.249-2.263-.745-.583-.497-.932-1.165-1.046-2.003Zm11.013-7.486c.97 0 1.73.347 2.276 1.04.652.82.978 2.18.978 4.08 0 1.897-.328 3.26-.984 4.088-.543.684-1.3 1.026-2.27 1.026-.975 0-1.761-.374-2.358-1.121-.597-.752-.896-2.09-.896-4.013 0-1.887.328-3.245.984-4.074.543-.684 1.3-1.025 2.27-1.025Zm0 1.593a.95.95 0 0 0-.622.226c-.182.146-.324.41-.424.793-.132.497-.198 1.333-.198 2.509 0 1.175.06 1.984.178 2.426.118.438.266.73.444.875.182.146.39.22.622.22.233 0 .44-.074.622-.22.182-.15.324-.417.424-.8.132-.492.198-1.326.198-2.501 0-1.176-.06-1.983-.178-2.42-.118-.442-.268-.736-.45-.882a.925.925 0 0 0-.616-.226ZM47.982 82V71.978h3.029l1.818 6.837 1.798-6.837h3.035V82h-1.88v-7.889L53.793 82h-1.948l-1.983-7.889V82h-1.88ZM59.68 71.978h4.006c.793 0 1.383.035 1.77.103.392.064.74.2 1.046.41.31.21.567.49.772.841.206.346.308.736.308 1.169 0 .47-.127.9-.383 1.292a2.33 2.33 0 0 1-1.025.882c.61.178 1.08.48 1.408.909.328.428.492.932.492 1.51 0 .457-.107.9-.321 1.334-.21.428-.5.772-.868 1.032-.365.255-.816.412-1.354.472-.337.036-1.15.059-2.44.068h-3.411V71.978Zm2.023 1.669v2.317h1.326c.789 0 1.279-.011 1.47-.034.346-.041.618-.16.813-.356.201-.2.301-.462.301-.786 0-.31-.086-.56-.26-.752-.168-.196-.421-.314-.758-.355-.2-.023-.777-.034-1.73-.034h-1.162Zm0 3.985v2.68h1.873c.73 0 1.192-.021 1.388-.062.3-.055.544-.187.731-.397.192-.214.287-.498.287-.854 0-.3-.072-.556-.218-.766a1.236 1.236 0 0 0-.636-.458c-.273-.095-.87-.143-1.791-.143h-1.634Z" fill="#fff"/></svg>