<svg width="150" height="100" fill="none" xmlns="http://www.w3.org/2000/svg"><path opacity=".6" d="M116 14H52a8 8 0 0 0-8 8v52a8 8 0 0 0 8 8h64a8 8 0 0 0 8-8V22a8 8 0 0 0-8-8Z" fill="#ADD6F4"/><path d="M108 22H44a8 8 0 0 0-8 8v52a8 8 0 0 0 8 8h64a8 8 0 0 0 8-8V30a8 8 0 0 0-8-8Z" fill="#E3F3FF"/><mask id="a" style="mask-type:alpha" maskUnits="userSpaceOnUse" x="36" y="22" width="80" height="68"><path d="M108 22H44a8 8 0 0 0-8 8v52a8 8 0 0 0 8 8h64a8 8 0 0 0 8-8V30a8 8 0 0 0-8-8Z" fill="#058CFF"/></mask><g mask="url(#a)"><circle cx="92" cy="87" r="25" fill="#227BFE"/><circle cx="49.5" cy="83.5" r="37.5" fill="#4E95FF"/><path d="M100.5 44a6.5 6.5 0 1 0 0-13 6.5 6.5 0 0 0 0 13Z" fill="#FFC10A"/></g><rect x="21" y="63" width="50" height="27" rx="6" fill="#FF4949"/><path d="M34.106 80.865v-1.934l4.8-1.887-4.8-1.866v-1.921l6.877 2.974v1.64l-6.877 2.994ZM45.994 82v-2.017h-4.101v-1.681l4.347-6.365h1.613v6.358h1.245v1.688h-1.245V82h-1.859Zm0-3.705V74.87l-2.304 3.425h2.304ZM50.472 82V71.978h2.023v4.45l4.088-4.45h2.72l-3.773 3.904L59.51 82H56.89l-2.755-4.703-1.64 1.675V82h-2.024Z" fill="#fff"/></svg>