<svg xmlns="http://www.w3.org/2000/svg" viewBox="0 0 56 56"><defs><style>.cls-1{fill:none;}.cls-2{fill:#fff;}</style></defs><title>资源 4@1x</title><g id="图层_2" data-name="图层 2"><g id="图层_1-2" data-name="图层 1"><rect class="cls-1" width="56" height="56"/><path class="cls-2" d="M41.16,23.45a3.87,3.87,0,0,0-2.75,1.16,18.74,18.74,0,0,0-10-3.08l2-9.06,6.41,1.45a2.86,2.86,0,0,0,2.85,2.85,2.88,2.88,0,1,0-2.56-4.17L30.08,11a.69.69,0,0,0-.8.51l-2.21,10a18.88,18.88,0,0,0-9.89,3.1,3.83,3.83,0,1,0-4.45,6.09,8.18,8.18,0,0,0-.2,1.79c0,6.08,6.85,11,15.27,11s15.31-4.93,15.31-11a7.45,7.45,0,0,0-.22-1.83A3.82,3.82,0,0,0,41.16,23.45ZM18.59,31.1a2.87,2.87,0,1,1,2.85,2.84A2.86,2.86,0,0,1,18.59,31.1Zm15.56,6.79c-2.65,2.64-10.11,2.64-12.74,0a.68.68,0,0,1,0-1,.71.71,0,0,1,1,0c2,2.07,8.72,2.11,10.82,0a.71.71,0,0,1,1,0A.68.68,0,0,1,34.15,37.89Zm-.07-4A2.86,2.86,0,1,1,37,31.1,2.84,2.84,0,0,1,34.08,33.94Z"/></g></g></svg>