<svg width="56" height="56" fill="none" xmlns="http://www.w3.org/2000/svg"><g clip-path="url(#a)"><path d="M15.064 16.015c-.01.015.854 1.173 1.915 2.566l5.013 6.585 3.083 4.049-.198.22-5.034 5.343C17.187 37.6 15.005 39.927 15 39.953c-.01.026.454.047 1.12.042l1.136-.005.373-.404a5918.877 5918.877 0 0 0 8.347-8.868l.133-.152 1.067 1.404c.587.77 2.203 2.897 3.59 4.72L33.292 40h3.867c3.216 0 3.86-.01 3.84-.068-.017-.042-.998-1.341-2.182-2.897-1.184-1.55-2.538-3.331-3.008-3.95-.474-.617-1.866-2.456-3.104-4.075-1.237-1.623-2.25-2.975-2.25-2.996 0-.036 6.538-7.008 8.762-9.34l.635-.665h-1.168l-1.163.006-1.36 1.445c-.746.797-2.576 2.745-4.069 4.322l-2.704 2.87-3.28-4.305-3.285-4.311-3.867-.027c-2.128-.015-3.882-.01-3.893.006Zm9.163 4.64c1.264 1.666 3.215 4.228 4.335 5.7 1.12 1.466 3.606 4.735 5.526 7.254l3.536 4.652c.032.047-.347.063-1.728.063H34.13l-3.498-4.6c-8.075-10.596-12.15-15.95-12.197-16.028-.032-.047.33-.063 1.722-.063h1.766l2.304 3.023Z" fill="#fff"/></g><defs><clipPath id="a"><path fill="#fff" d="M0 0h56v56H0z"/></clipPath></defs></svg>