<svg width="150" height="100" fill="none" xmlns="http://www.w3.org/2000/svg"><path opacity=".6" d="M116 14H52a8 8 0 0 0-8 8v52a8 8 0 0 0 8 8h64a8 8 0 0 0 8-8V22a8 8 0 0 0-8-8Z" fill="#ADD6F4"/><path d="M108 22H44a8 8 0 0 0-8 8v52a8 8 0 0 0 8 8h64a8 8 0 0 0 8-8V30a8 8 0 0 0-8-8Z" fill="#E3F3FF"/><mask id="a" style="mask-type:alpha" maskUnits="userSpaceOnUse" x="36" y="22" width="80" height="68"><path d="M108 22H44a8 8 0 0 0-8 8v52a8 8 0 0 0 8 8h64a8 8 0 0 0 8-8V30a8 8 0 0 0-8-8Z" fill="#058CFF"/></mask><g mask="url(#a)"><circle cx="92" cy="87" r="25" fill="#227BFE"/><circle cx="49.5" cy="83.5" r="37.5" fill="#4E95FF"/><path d="M100.5 44a6.5 6.5 0 1 0 0-13 6.5 6.5 0 0 0 0 13Z" fill="#FFC10A"/></g><circle cx="36" cy="23" r="17" fill="#FF763B"/><path d="m45.604 22.587-7.49-7.88a2.19 2.19 0 0 0-3.221 0l-7.49 7.88a1.533 1.533 0 0 0 0 2.071 1.355 1.355 0 0 0 1.968 0l5.752-6.052v14.941c0 .807.613 1.453 1.38 1.453.767 0 1.38-.646 1.38-1.453v-14.94l5.727 6.024c.28.296.613.43.971.43s.716-.134.971-.43a1.45 1.45 0 0 0 .052-2.044Z" fill="#fff"/></svg>