<svg width="150" height="100" fill="none" xmlns="http://www.w3.org/2000/svg"><path opacity=".6" d="M116 14H52a8 8 0 0 0-8 8v52a8 8 0 0 0 8 8h64a8 8 0 0 0 8-8V22a8 8 0 0 0-8-8Z" fill="#ADD6F4"/><path d="M108 22H44a8 8 0 0 0-8 8v52a8 8 0 0 0 8 8h64a8 8 0 0 0 8-8V30a8 8 0 0 0-8-8Z" fill="#E3F3FF"/><mask id="a" style="mask-type:alpha" maskUnits="userSpaceOnUse" x="36" y="22" width="80" height="68"><path d="M108 22H44a8 8 0 0 0-8 8v52a8 8 0 0 0 8 8h64a8 8 0 0 0 8-8V30a8 8 0 0 0-8-8Z" fill="#058CFF"/></mask><g mask="url(#a)"><circle cx="92" cy="87" r="25" fill="#227BFE"/><circle cx="49.5" cy="83.5" r="37.5" fill="#4E95FF"/><path d="M100.5 44a6.5 6.5 0 1 0 0-13 6.5 6.5 0 0 0 0 13Z" fill="#FFC10A"/></g><circle cx="44" cy="73" r="17" fill="#FF763B"/><path d="m53.604 72.587-7.49-7.88a2.19 2.19 0 0 0-3.221 0l-7.49 7.88a1.533 1.533 0 0 0 0 2.071 1.355 1.355 0 0 0 1.968 0l5.752-6.052v14.942c0 .806.613 1.452 1.38 1.452.767 0 1.38-.646 1.38-1.453v-14.94l5.727 6.025c.28.295.613.43.971.43s.716-.135.971-.43a1.45 1.45 0 0 0 .052-2.045Z" fill="#fff"/><path d="m116.505 32.445-12.72-7.344a2.987 2.987 0 0 1-1.349-3.55l5.985-17.792a.954.954 0 0 1 .958-.666c.4.01.806.299.949.659l2.728 7.69 8.196-3.508c.595-.23 1.288.17 1.386.8l1.052 8.866 8.011-1.49c.415-.112.844.136 1.045.493.201.356.143.84-.098 1.162l-12.401 14.087a2.99 2.99 0 0 1-3.742.593Z" fill="#FFCE4F"/><path d="m109.4 7.151-5.088 15.02c-.141.437.03.942.459 1.19l12.734 7.351c.43.248.952.144 1.273-.188l10.464-11.917-6.205 1.147c-.284.077-.557-.026-.779-.154-.198-.17-.399-.397-.409-.698l-1.032-8.614-7.975 3.414c-.229.108-.523.105-.81-.006a.862.862 0 0 1-.523-.598L109.4 7.151Z" fill="#FFB800"/><path d="M112.641 24.45c-.305-.176-.505-.533-.486-.854l-.101-5.841c-.039-.54.427-1.028.977-.988.54-.04 1.028.427.988.977l.08 4.148 3.633-2.004c.487-.236 1.104-.12 1.34.367s.12 1.104-.367 1.34l-5.109 2.833c-.241.193-.65.198-.955.022Z" fill="#fff"/></svg>