<svg fill="none" height="70" viewBox="0 0 70 70" width="70" xmlns="http://www.w3.org/2000/svg"><circle cx="35" cy="35" fill="#2473e8" r="35"/><path d="m48.4366 29.8586-10.6436-10.8835c-1.2715-1.3001-3.3058-1.3001-4.5772 0l-10.6437 10.8835c-.7628.78-.7628 2.0801 0 2.8602.7629.78 2.0343.78 2.7972 0l8.1735-8.3577v26.6331c0 1.1143.8718 2.0058 1.9616 2.0058s1.9616-.8915 1.9616-2.0058v-26.6331l8.1372 8.3205c.3996.4086.8718.5943 1.3804.5943.5085 0 1.0171-.1857 1.3804-.5943.8355-.78.8355-2.043.0726-2.823z" fill="#fff"/></svg>