<svg xmlns="http://www.w3.org/2000/svg" viewBox="0 0 56 56"><defs><style>.cls-1{fill:none;}.cls-2{fill:#fff;}</style></defs><title>资源 7@1x</title><g id="图层_2" data-name="图层 2"><g id="图层_1-2" data-name="图层 1"><rect class="cls-1" width="56" height="56"/><path class="cls-2" d="M12.26,45l2.23-8.11a15.45,15.45,0,0,1-2.09-7.82A15.65,15.65,0,1,1,28.05,44.73h0a15.64,15.64,0,0,1-7.48-1.91L12.26,45ZM24.13,22.53c-.31-.76-.63-.66-.87-.67H22.5a1.4,1.4,0,0,0-1,.49A4.36,4.36,0,0,0,20.1,25.6a7.65,7.65,0,0,0,1.59,4c.2.26,2.76,4.21,6.68,5.9a20.63,20.63,0,0,0,2.23.83,5.46,5.46,0,0,0,2.46.15,4,4,0,0,0,2.64-1.86,3.22,3.22,0,0,0,.23-1.86c-.1-.16-.36-.26-.75-.45s-2.31-1.14-2.67-1.27-.62-.2-.88.19-1,1.27-1.24,1.53-.45.3-.85.1A10.56,10.56,0,0,1,26.4,31a11.85,11.85,0,0,1-2.18-2.71c-.22-.39,0-.6.18-.79s.39-.46.58-.69a2.55,2.55,0,0,0,.39-.65.73.73,0,0,0,0-.69c-.1-.19-.88-2.12-1.2-2.9Z"/></g></g></svg>